Coordinates
version=1
nRows=13
nColumns=63
inDegrees=yes

Units are S.I. units (second, meters, Newtons, ...)
If the header above contains a line with 'inDegrees', this indicates whether rotational values are in degrees (yes) or radians (no).

endheader
time	pelvis_tilt	pelvis_list	pelvis_rotation	pelvis_tx	pelvis_ty	pelvis_tz	hip_flexion_r	hip_adduction_r	hip_rotation_r	knee_angle_r	knee_angle_r_beta	ankle_angle_r	subtalar_angle_r	mtp_angle_r	hip_flexion_l	hip_adduction_l	hip_rotation_l	knee_angle_l	knee_angle_l_beta	ankle_angle_l	subtalar_angle_l	mtp_angle_l	L5_S1_Flex_Ext	L5_S1_Lat_Bending	L5_S1_axial_rotation	L4_L5_Flex_Ext	L4_L5_Lat_Bending	L4_L5_axial_rotation	L3_L4_Flex_Ext	L3_L4_Lat_Bending	L3_L4_axial_rotation	L2_L3_Flex_Ext	L2_L3_Lat_Bending	L2_L3_axial_rotation	L1_L2_Flex_Ext	L1_L2_Lat_Bending	L1_L2_axial_rotation	L1_T12_Flex_Ext	L1_T12_Lat_Bending	L1_T12_axial_rotation	Abs_r3	Abs_r2	Abs_r1	Abs_t1	Abs_t2	neck_flexion	neck_bending	neck_rotation	arm_flex_r	arm_add_r	arm_rot_r	elbow_flex_r	pro_sup_r	wrist_flex_r	wrist_dev_r	arm_flex_l	arm_add_l	arm_rot_l	elbow_flex_l	pro_sup_l	wrist_flex_l	wrist_dev_l
0.000000	-0.862225	-5.078285	75.577644	0.205665	0.883980	0.639092	-0.255407	-2.291617	-9.486325	5.670815	0.098974	23.497174	17.440575	0.000000	-4.585192	1.146203	-0.380257	2.007735	0.035042	19.964703	-10.333252	0.000000	0.052805	-0.013663	3.118126	0.098064	-0.018171	3.313008	0.086753	-0.033219	3.313008	0.060351	-0.033219	2.728360	0.049034	-0.027861	2.533477	0.030173	-0.021163	2.338594	0.377179	-0.154555	17.342079	0.000000	0.000000	18.604537	0.773392	-6.545624	-7.949615	-9.407040	21.969272	67.071646	68.839998	18.240576	10.791882	6.354349	-8.821796	49.553932	62.495867	72.214688	13.247435	12.380348
0.016667	-0.806553	-5.284540	75.610244	0.205637	0.883564	0.639166	-0.060166	-2.157445	-9.415608	5.682248	0.099174	23.427280	17.204697	0.000000	-4.398552	1.021321	-0.066900	2.081752	0.036333	20.023242	-10.661829	0.000000	0.065008	-0.001339	3.099413	0.120725	-0.001780	3.293126	0.106801	-0.003254	3.293126	0.074297	-0.003254	2.711986	0.060366	-0.002729	2.518273	0.037145	-0.002073	2.324560	0.464342	-0.015142	17.238004	0.000000	0.000000	18.550376	0.772959	-5.671447	-7.984321	-9.446379	22.022123	67.325436	66.994567	17.910539	13.028765	6.227200	-8.917515	49.717098	62.550265	70.873441	13.119081	12.195780
0.033333	-0.751604	-5.451042	75.631514	0.205622	0.883188	0.639205	0.091630	-2.038720	-9.369092	5.685322	0.099228	23.413129	17.030540	0.000000	-4.254259	0.909933	0.114233	2.146371	0.037461	20.093613	-10.838113	0.000000	0.075230	0.009994	3.088133	0.139710	0.013291	3.281142	0.123596	0.024298	3.281142	0.085981	0.024298	2.702117	0.069859	0.020379	2.509108	0.042987	0.015480	2.316100	0.537363	0.113049	17.175271	0.000000	0.000000	18.440013	0.728512	-5.019135	-8.037987	-9.482585	22.054703	67.527578	65.471318	17.697307	14.728519	6.112368	-9.011447	49.878403	62.613703	69.966050	12.991098	11.961828
0.050000	-0.697622	-5.581568	75.643639	0.205616	0.882848	0.639214	0.204147	-1.934354	-9.343707	5.681387	0.099159	23.446747	16.910922	0.000000	-4.147891	0.811142	0.180000	2.202368	0.038439	20.174302	-10.881188	0.000000	0.083648	0.020385	3.083223	0.155343	0.027112	3.275924	0.137426	0.049564	3.275924	0.095601	0.049564	2.697820	0.077676	0.041569	2.505119	0.047797	0.031577	2.312417	0.597490	0.230600	17.147962	0.000000	0.000000	18.282689	0.648092	-4.565951	-8.107129	-9.516023	22.070717	67.682187	64.241024	17.584896	15.944609	6.009702	-9.103248	50.037496	62.684922	69.435997	12.863425	11.688060
0.066667	-0.644850	-5.679897	75.648808	0.205616	0.882543	0.639195	0.281556	-1.843255	-9.336382	5.671792	0.098991	23.520161	16.838659	0.000000	-4.075027	0.724054	0.147263	2.250521	0.039279	20.263797	-10.810135	0.000000	0.090436	0.029888	3.083618	0.167949	0.039751	3.276344	0.148577	0.072670	3.276344	0.103359	0.072670	2.698165	0.083979	0.060948	2.505439	0.051675	0.046297	2.312713	0.645975	0.338099	17.150156	0.000000	0.000000	18.087649	0.539742	-4.289158	-8.188266	-9.547055	22.073871	67.793378	63.274460	17.557320	16.730501	5.919049	-9.192572	50.194025	62.762662	69.226762	12.735999	11.384043
0.083333	-0.593532	-5.749806	75.649208	0.205620	0.882270	0.639156	0.328022	-1.764334	-9.344046	5.657887	0.098749	23.625401	16.806568	0.000000	-4.031244	0.647773	0.032880	2.291607	0.039996	20.360584	-10.644038	0.000000	0.095769	0.038554	3.088253	0.177852	0.051277	3.281269	0.157338	0.093740	3.281269	0.109454	0.093740	2.702221	0.088931	0.078619	2.509206	0.054722	0.059720	2.316190	0.684066	0.436130	17.175936	0.000000	0.000000	17.864135	0.411507	-4.166019	-8.277914	-9.576043	22.067873	67.865268	62.542399	17.598596	17.139659	5.840255	-9.279073	50.347637	62.845663	69.281826	12.608756	11.059343
0.100000	-0.543911	-5.795074	75.647028	0.205624	0.882026	0.639099	0.347715	-1.696503	-9.363629	5.641020	0.098454	23.754492	16.807465	0.000000	-4.012121	0.581404	-0.146289	2.326402	0.040603	20.463148	-10.401978	0.000000	0.099821	0.046435	3.096065	0.185378	0.061758	3.289569	0.163996	0.112901	3.289569	0.114086	0.112901	2.709057	0.092694	0.094689	2.515552	0.057038	0.071927	2.322048	0.713014	0.525278	17.219382	0.000000	0.000000	17.621391	0.271429	-4.173797	-8.372591	-9.603351	22.056429	67.901971	62.015615	17.692738	17.225548	5.773170	-9.362406	50.497981	62.932667	69.544671	12.481635	10.723528
0.116667	-0.496229	-5.819477	75.644453	0.205627	0.881810	0.639029	0.344802	-1.638670	-9.392059	5.622542	0.098132	23.899462	16.834167	0.000000	-4.013237	0.524052	-0.373383	2.355684	0.041114	20.569978	-10.103037	0.000000	0.102769	0.053582	3.105988	0.190852	0.071264	3.300113	0.168839	0.130279	3.300113	0.117454	0.130279	2.717740	0.095431	0.109264	2.523616	0.058722	0.082998	2.329491	0.734067	0.606127	17.274575	0.000000	0.000000	17.368661	0.127551	-4.289754	-8.468814	-9.629341	22.043245	67.907605	61.664882	17.823762	17.041633	5.717639	-9.442225	50.644703	63.022412	69.958778	12.354573	10.386166
0.133333	-0.450731	-5.826793	75.643673	0.205626	0.881617	0.638951	0.323452	-1.589747	-9.426266	5.603800	0.097805	24.052338	16.879491	0.000000	-4.030169	0.474820	-0.631544	2.380230	0.041543	20.679558	-9.766299	0.000000	0.104786	0.060047	3.116960	0.194598	0.079863	3.311770	0.172153	0.145998	3.311770	0.119760	0.145998	2.727340	0.097304	0.122448	2.532530	0.059875	0.093013	2.337720	0.748477	0.679265	17.335596	0.000000	0.000000	17.115186	-0.012084	-4.491154	-8.563100	-9.654376	22.032029	67.886284	61.460973	17.975683	16.641378	5.673511	-9.518186	50.787453	63.113640	70.467627	12.227507	10.056823
0.150000	-0.407659	-5.820802	75.646874	0.205616	0.881447	0.638870	0.287832	-1.548644	-9.463179	5.586145	0.097497	24.205148	16.936253	0.000000	-4.058495	0.432815	-0.903911	2.400817	0.041902	20.790376	-9.410846	0.000000	0.106048	0.065882	3.127915	0.196942	0.087623	3.323410	0.174227	0.160186	3.323410	0.121202	0.160186	2.736926	0.098476	0.134347	2.541431	0.060596	0.102052	2.345936	0.757492	0.745274	17.396526	0.000000	0.000000	16.870212	-0.139433	-4.755259	-8.651966	-9.678818	22.026486	67.842124	61.374662	18.132516	16.078250	5.640633	-9.589941	50.925878	63.205091	71.014700	12.100374	9.745067
0.166667	-0.367257	-5.805279	75.656245	0.205597	0.881296	0.638790	0.242111	-1.514270	-9.499728	5.570925	0.097231	24.349920	16.997270	0.000000	-4.093795	0.397141	-1.173625	2.418222	0.042206	20.900919	-9.055760	0.000000	0.106730	0.071139	3.137790	0.198208	0.094615	3.333902	0.175347	0.172968	3.333902	0.121982	0.172968	2.745566	0.099110	0.145067	2.549454	0.060986	0.110195	2.353342	0.762362	0.804741	17.451445	0.000000	0.000000	16.642980	-0.246453	-5.059332	-8.731931	-9.703031	22.030322	67.779241	61.376722	18.278276	15.405711	5.618852	-9.657147	51.059626	63.295505	71.543478	11.973113	9.460464
0.183333	-0.333227	-5.785738	75.679733	0.205557	0.881158	0.638709	0.189427	-1.488681	-9.493098	5.567108	0.097164	24.403475	17.019543	0.000000	-4.129018	0.371144	-1.406784	2.436741	0.042529	21.025080	-8.748465	0.000000	0.106874	0.074829	3.149981	0.198475	0.099522	3.346855	0.175583	0.181938	3.346855	0.122146	0.181938	2.756234	0.099243	0.152590	2.559360	0.061068	0.115910	2.362486	0.763388	0.846476	17.519251	0.000000	0.000000	16.404869	-0.344943	-5.425031	-8.814079	-9.729837	22.050501	67.716648	61.307445	18.326618	14.684256	5.653348	-9.742836	51.323464	63.370638	71.653965	11.831286	9.171812
0.200000	-0.306032	-5.775615	75.720467	0.205500	0.881018	0.638610	0.144575	-1.468017	-9.468263	5.571880	0.097248	24.441423	17.012286	0.000000	-4.154298	0.351923	-1.476020	2.440233	0.042590	21.100295	-8.637761	0.000000	0.108056	0.078035	3.149385	0.200670	0.103786	3.346222	0.177525	0.189733	3.346222	0.123497	0.189733	2.755712	0.100341	0.159128	2.558875	0.061743	0.120875	2.362039	0.771831	0.882742	17.515936	0.000000	0.000000	16.285439	-0.352729	-5.688151	-8.857732	-9.763381	22.124839	67.646868	61.371431	18.351290	13.980951	5.665649	-9.818051	51.480939	63.467190	71.712987	11.738128	8.988275
